<svg width="1246" height="2702" viewBox="0 0 1246 2702" fill="none" xmlns="http://www.w3.org/2000/svg">
<g filter="url(#filter0_i_2_4)">
<path d="M368.975 400.864C355.017 416.265 334.334 434.154 311.546 451.159C286.694 469.82 259.443 488.094 235.803 505.294C219.142 517.363 204.334 528.901 192.808 538.866C192.02 539.546 191.236 540.227 190.456 540.91C182.4 547.972 175.089 554.894 167.509 562.966C165.559 565.048 163.649 567.149 161.654 569.426C149.038 584.332 133.897 602.886 123.962 634.539C117.667 656.311 114.706 681.481 122.368 717.739C123.397 722.48 124.606 727.23 125.996 731.967C134.286 759.044 147.68 783.214 165.9 805.451C167.034 806.831 168.185 808.201 169.352 809.559C192.222 836.171 220.978 858.02 252.343 875.076C283.815 892.169 317.946 904.6 353.099 912.546C388.244 920.451 424.432 923.905 460.293 922.104C495.944 920.279 531.595 913.138 563.35 898.77C595.607 883.991 621.878 863.307 639.906 832.952C665.608 790.22 713.325 770.198 755.353 758.734C798.431 747.396 842.83 743.627 886.586 743.949C930.451 744.408 974.141 749.159 1017.01 758.474C1028.29 760.945 1038.92 763.595 1050.1 766.776C1054.25 767.932 1058.42 769.152 1062.58 770.431C1088.48 778.459 1115.5 788.897 1141.44 804.597C1181.51 825.825 1221.62 877.876 1205.12 924.812C1200.83 940.353 1194.11 952.346 1186.52 963.424C1164.12 994.465 1140.4 1012.39 1118.12 1028.81C1118.12 1028.81 1118.12 1028.81 1118.12 1028.81C1088.08 1050.28 1061.61 1065.3 1036.9 1077.34C1021.45 1084.97 1005.53 1091.89 989.374 1097.96C943.667 1115.21 895.552 1125.58 847.319 1130.28C798.964 1135.09 750.619 1134.44 702.739 1132.16C654.968 1129.95 607.347 1126.03 560.337 1125.9C513.359 1125.8 466.27 1129.82 422.884 1145.31C379.039 1160.79 341.879 1187.28 310.608 1222.97C310.608 1222.97 310.608 1222.97 310.608 1222.97C306.715 1227.4 302.958 1231.83 299.334 1236.26C278.805 1261.38 261.123 1288.01 247.009 1317.02C230.611 1350.75 219.493 1387.64 217.242 1424.84C216.648 1434.63 216.65 1444.15 217.301 1453.92C219.106 1481.29 226.302 1508.31 239.013 1532.44C256.114 1565.25 283.302 1592.15 315.613 1610.52C322.124 1614.26 329.024 1617.75 335.834 1620.8C364.281 1633.34 393.747 1639.87 422.266 1642.79C432.961 1643.87 442.648 1644.4 452.994 1644.59C482.353 1645.08 509.668 1642.38 535.447 1638.18C556.055 1634.8 575.422 1632.05 593.201 1629.85C618.929 1626.66 645.585 1624.06 672.485 1622.24C719.351 1619.06 766.858 1618.36 810.674 1620.34C835.986 1621.46 860.094 1623.45 882.06 1626.04C895.441 1627.62 907.953 1629.39 919.57 1631.29C929.288 1632.8 938.659 1634.44 948.366 1636.33C993.806 1645.26 1038.86 1658.46 1081.21 1679.07C1089.66 1683.19 1098.18 1687.72 1106.28 1692.45C1110.08 1694.82 1113.86 1697.29 1117.62 1699.85C1141.19 1716.06 1166.69 1736.45 1190.48 1767.56C1213.52 1797.62 1234.49 1840.37 1241.35 1894.01C1241.54 1895.45 1241.72 1896.9 1241.89 1898.36C1241.89 1898.36 1241.89 1898.36 1241.89 1898.36C1245.91 1932.77 1247.75 1972.56 1243.33 2016.37C1241.89 2030.48 1239.81 2044.88 1236.82 2059.78C1229.29 2096.22 1221.04 2116.02 1214.56 2131.16C1213.75 2132.99 1212.95 2134.75 1212.16 2136.46C1209.99 2141.15 1207.91 2145.42 1205.67 2149.84C1198.07 2164.72 1189.8 2180.47 1177.99 2197.83C1170.65 2208.56 1161.94 2219.87 1150.83 2231.48C1138.6 2244.23 1123.44 2257.38 1104.03 2269.33C1085.37 2280.8 1067.16 2288.89 1049.96 2294.83C1000.88 2311.27 962.312 2312.04 932.643 2311.68C906.377 2310.99 886.44 2308.5 868.44 2305.63C855.593 2303.55 843.102 2300.95 831.578 2298.05C826.56 2296.79 821.239 2295.35 815.672 2293.73C779.804 2283.33 734.691 2268.58 699.796 2256.93C692.108 2254.36 682.689 2251.32 671.827 2247.89C637.918 2237.18 592.009 2223.43 554.857 2213.06C546.834 2210.81 537.582 2208.17 527.279 2205.24C513.832 2201.42 498.653 2197.12 481.926 2192.54C452.481 2184.49 418.431 2175.62 381.764 2167.6C380.455 2167.32 379.143 2167.03 377.83 2166.75C313.701 2152.97 269.345 2146.99 234.387 2144.07C216.929 2142.65 201.513 2142.04 187.967 2142.02C175.827 2142.01 165.442 2142.4 154.352 2143.3C134.917 2144.94 112.192 2148.4 91.1557 2156.73C75.8989 2162.73 61.3585 2171.72 50.7756 2183.88C31.7814 2205.67 26.85 2233.45 28.3064 2263.34C29.3139 2282.3 31.9821 2299.28 35.3009 2314.21C38.1045 2327.63 41.8069 2341.07 46.2562 2354.21C56.2268 2383.67 70.015 2411.96 86.437 2438.74C102.87 2465.54 121.919 2490.85 142.726 2514.72C160.67 2535.29 180.012 2554.87 200.246 2573.34C203.489 2576.3 206.727 2579.22 209.951 2582.08C235.394 2604.73 261.106 2625.23 284.063 2642.43C294.323 2650.13 304.106 2657.23 313.065 2663.62C344.353 2685.9 362.803 2697.81 361.201 2700.54C360.119 2703.28 338.711 2696.48 304.295 2677.57C294.456 2672.15 283.817 2665.85 272.748 2658.79C247.985 2643.01 220.677 2623.09 194.114 2600.18C190.748 2597.28 187.376 2594.31 184.007 2591.29C162.986 2572.44 142.819 2552.39 124.005 2531.19C102.193 2506.6 82.0686 2480.36 64.5373 2452.29C47.0216 2424.25 32.1082 2394.34 21.1703 2362.81C15.0205 2345.07 10.1685 2327.01 6.75102 2308.22C4.09822 2293.62 2.41861 2279.04 1.70245 2264.58C-5.45857 2213.54 27.5713 2147.81 81.6106 2132.27C132.815 2113.21 186.003 2114.74 236.656 2118.73C256.923 2120.53 277.369 2123.2 297.346 2126.38C327.486 2131.18 357.486 2137.21 387.123 2143.93C436.628 2155.19 485.349 2168.34 533.873 2182.39C547.206 2186.26 560.51 2190.19 573.769 2194.17C583.124 2196.98 592.447 2199.81 601.725 2202.65C627.811 2210.32 653.793 2218.15 678.77 2225.75C727.077 2240.46 771.525 2254.17 806.712 2264.64C812.378 2266.33 817.765 2267.93 822.902 2269.45C858.535 2279.92 885.442 2284.81 909.468 2287.58C917.757 2288.51 925.633 2289.13 933.423 2289.48C943.096 2289.92 952.845 2289.91 962.233 2289.42C971.378 2288.94 983.647 2287.93 998.484 2285.33C1011.59 2283.01 1026.6 2279.41 1042.44 2273.71C1073 2262.9 1106.37 2243.49 1134.08 2215.05C1157.65 2191.2 1176.97 2161.44 1190.74 2130.35C1191.85 2127.88 1192.93 2125.36 1194 2122.79C1207.47 2090.79 1217.14 2052.6 1221.41 2014.16C1222.11 2008.03 1222.69 2001.84 1223.15 1995.62C1225.65 1961.9 1224.44 1929.42 1221.35 1900.78C1221.35 1900.77 1221.35 1900.78 1221.35 1900.78C1218.3 1872.05 1211.3 1849.54 1205.42 1835.16C1197.76 1816.26 1187.27 1797.46 1174.02 1780.17C1151.53 1750.5 1120.95 1726.06 1089.9 1708.44C1083.85 1704.97 1077.58 1701.63 1071.58 1698.64C1030.74 1678.35 992.517 1668.01 969.416 1662.85C960.642 1660.92 952.562 1659.27 944.131 1657.65C921.707 1653.39 898.997 1649.6 868.938 1646.26C851.982 1644.41 832.647 1642.75 809.814 1641.69C793.997 1640.95 776.4 1640.51 756.776 1640.57C724.3 1640.7 697.354 1641.85 673.913 1643.22C657.189 1644.22 642.264 1645.35 628.358 1646.57C595.972 1649.47 569.173 1652.67 538.472 1657.52C524.088 1659.78 509.893 1661.64 492.757 1663C468.724 1664.89 443.961 1664.86 420.092 1662.39C384.135 1658.81 349.769 1649.17 322.571 1635.85C317.271 1633.29 311.572 1630.3 306.081 1627.13C290.285 1618.04 274.183 1606.36 259.662 1591.98C244.854 1577.39 231.866 1560.03 222.122 1541.3C214.721 1527.15 209.161 1512.29 205.425 1497.67C198.338 1469.65 198.08 1445.5 199.714 1424.77C199.742 1424.44 199.77 1424.11 199.798 1423.78C200.322 1417.72 201.042 1411.85 201.913 1406.12C204.814 1383.66 210.487 1361.77 218.315 1340.58C219.473 1337.18 220.751 1333.6 222.167 1329.85C224.635 1323.32 227.46 1316.44 230.762 1309.16C237.173 1295.06 245.308 1279.58 256.126 1262.73C268.731 1243.15 281.985 1226.11 295.989 1210.17C295.988 1210.17 295.991 1210.17 295.99 1210.17C311.436 1192.64 328.18 1177.13 347.723 1163.21C368.008 1148.81 390.61 1136.78 416.514 1127.55C427.411 1123.67 438.91 1120.29 450.934 1117.46C478.56 1110.84 510.858 1107.27 542.444 1106.31C548.387 1106.12 554.352 1106 560.309 1105.95C600.922 1105.66 639.603 1108.01 667.29 1109.59C679.126 1110.31 689.476 1111.21 699.48 1112.03C699.524 1112.04 699.569 1112.04 699.613 1112.04C700.298 1112.1 700.986 1112.16 701.671 1112.21C702.314 1112.24 702.957 1112.26 703.601 1112.29C751.078 1114.2 798.379 1114.44 845.168 1109.4C873.799 1106.34 902.366 1101.29 930.05 1093.9C936.447 1092.13 942.714 1090.27 949.037 1088.25C960.377 1084.63 970.98 1080.81 981.284 1076.71C999.089 1069.63 1015.11 1061.88 1026.25 1055.85C1040.54 1048.21 1070.12 1032.02 1102.7 1007.71C1102.7 1007.71 1102.7 1007.71 1102.7 1007.71C1115.89 997.855 1126.02 989.569 1138.07 977.98C1156.51 960.13 1172.72 938.664 1177.95 917.597C1180.27 908.433 1180.52 900.11 1179.13 892.162C1176.51 877.062 1168.03 863.071 1156.31 850.976C1148.34 842.715 1138.45 834.901 1127.19 827.92C1123.03 825.343 1119.16 823.142 1114.73 820.814C1106.07 816.284 1097.15 812.298 1086.65 808.203C1077.6 804.69 1068.01 801.389 1057.54 798.162C1049.67 795.738 1033.05 790.56 1011.18 785.683C1006.97 784.743 1002.76 783.849 998.252 782.949C980.64 779.432 960.675 776.326 939.398 774.247C921.769 772.724 904.125 771.933 886.436 771.909C847.78 771.91 809.059 775.351 772.021 784.32C768.834 785.185 765.872 786.05 762.975 786.95C755.582 789.238 749.347 791.561 744.309 793.716C739.241 795.886 734.737 798.117 730.527 800.395C724.872 803.486 718.856 806.934 711.193 811.807C705.39 815.479 698.564 820.214 694.564 823.075C692.614 824.45 691.208 825.384 689.756 826.41C688.156 827.539 686.753 828.577 685.217 830.01C684.111 831.046 683.064 832.216 681.824 833.689C679.912 836.007 677.246 839.206 673.501 844.427C672.177 846.291 670.902 848.251 669.703 850.312C656.889 873.365 632.667 898.453 607.872 913.858C598.001 920.207 587.977 925.56 577.717 930.223C555.664 940.23 533.976 946.311 515.238 950.201C500.325 953.313 482.014 955.816 462.134 956.713C441.368 957.686 418.904 956.923 396.638 954.361C379.195 952.372 361.971 949.321 345.713 945.536C333.554 942.711 321.979 939.493 311.271 936.117C286.749 928.412 261.718 918.438 238.584 906.339C237.749 905.904 236.918 905.466 236.089 905.025C209.282 890.848 185.227 873.666 166.988 856.297C163.17 852.672 158.78 847.845 153.574 841.529C150.9 838.281 148.01 834.631 144.927 830.552C143.745 828.986 142.534 827.357 141.297 825.663C120.497 800.559 103.681 769.794 94.7332 738.179C94.3539 737.092 93.972 735.968 93.597 734.84C93.5906 734.822 93.5842 734.804 93.5778 734.786C92.5411 731.665 91.5243 728.384 90.5484 724.926C84.3863 702.817 77.2795 666.88 90.2316 624.668C90.9791 622.267 91.8291 619.741 92.7313 617.274C97.5439 604.325 101.98 596.797 105.994 590.222C110.013 583.804 113.828 578.219 119.412 570.244C125.794 561.166 133.627 550.828 142.959 540.347C143.007 540.292 143.056 540.238 143.105 540.183C156.136 525.494 172.049 510.662 189.129 497.727C190.301 496.837 191.569 495.882 192.885 494.896C199.199 490.166 207.24 484.344 216.037 478.293C224.521 472.448 233.744 466.348 243.027 460.414C259.686 448.755 276.301 437.301 292.372 425.439C316.809 407.351 340.429 388.194 359.004 365.829C368.095 354.853 375.88 343.07 381.553 330.517C387.309 317.745 390.953 304.463 392.043 289.199C393.687 264.001 386.465 241.175 373.491 218.948C360.589 197.071 342.891 177.568 323.447 160.01C303.889 142.407 282.412 126.657 260.066 112.207C248.819 104.943 237.333 98.0138 225.666 91.3716C213.928 84.688 202.155 78.3023 190.565 72.2475C164.792 58.781 139.899 46.9437 118.127 36.9593C111.18 33.7741 104.611 30.7997 98.3639 27.991C63.8403 12.5039 43.9436 3.85964 45.0335 0.976809C45.6641 -1.86239 67.4371 1.29869 104.142 12.7994C110.778 14.8912 117.735 17.2077 125.068 19.7978C148.053 27.9119 174.137 38.4945 201.006 51.4213C213.088 57.2336 225.333 63.5216 237.513 70.2616C249.618 76.9616 261.575 83.9781 273.34 91.3772C296.717 106.103 319.403 122.285 340.518 140.835C361.501 159.37 381.175 180.291 396.36 205.313C407.498 223.856 415.917 244.197 418.797 267.544C419.467 272.759 419.811 277.944 419.854 282.936C419.878 285.642 419.819 288.309 419.687 290.947C418.551 324.754 403.181 358.366 384.098 382.818C383.543 383.547 382.984 384.274 382.42 384.999C378.178 390.451 373.642 395.773 368.975 400.864Z" fill="#D22735"/>
</g>
<defs>
<filter id="filter0_i_2_4" x="0.731503" y="-0.00177002" width="1252.16" height="2708.13" filterUnits="userSpaceOnUse" color-interpolation-filters="sRGB">
<feFlood flood-opacity="0" result="BackgroundImageFix"/>
<feBlend mode="normal" in="SourceGraphic" in2="BackgroundImageFix" result="shape"/>
<feColorMatrix in="SourceAlpha" type="matrix" values="0 0 0 0 0 0 0 0 0 0 0 0 0 0 0 0 0 0 127 0" result="hardAlpha"/>
<feOffset dx="7" dy="7"/>
<feGaussianBlur stdDeviation="4.3"/>
<feComposite in2="hardAlpha" operator="arithmetic" k2="-1" k3="1"/>
<feColorMatrix type="matrix" values="0 0 0 0 1 0 0 0 0 1 0 0 0 0 1 0 0 0 0.25 0"/>
<feBlend mode="normal" in2="shape" result="effect1_innerShadow_2_4"/>
</filter>
</defs>
</svg>
